<svg xmlns="http://www.w3.org/2000/svg" width="425" height="425" fill="none" viewBox="0 0 425 425"><g clip-path="url(#a)"><mask id="c" width="425" height="425" x="0" y="0" maskUnits="userSpaceOnUse" style="mask-type:alpha"><rect width="425" height="425" fill="url(#b)" rx="212.5"/></mask><g mask="url(#c)"><rect width="425" height="425" fill="url(#d)" rx="212.5"/><g filter="url(#e)" opacity="0.5"><path fill="url(#f)" fill-rule="evenodd" d="M212.5 425C329.861 425 425 329.861 425 212.5 425 95.14 329.861 0 212.5 0 95.14 0 0 95.14 0 212.5 0 329.861 95.14 425 212.5 425m0-13.281c110.025 0 199.219-89.194 199.219-199.219S322.525 13.281 212.5 13.281 13.281 102.475 13.281 212.5 102.475 411.719 212.5 411.719" clip-rule="evenodd"/></g></g><path fill="#fff" fill-rule="evenodd" d="M161.382 104.33c-34.135-1.216-59.429 7.121-65.727 24.512-10.883 29.9 38.361 75.276 110.006 101.342 71.632 26.072 138.528 22.978 149.411-6.922 6.329-17.39-7.694-40.017-34.613-61.032a26.1 26.1 0 0 1-8.368 3.841c-12.813 3.386-35.689 2.995-78.516-12.582-42.82-15.596-60.594-30.001-68.234-40.831a26.3 26.3 0 0 1-3.941-8.321zm71.378 91.667a13.804 13.804 0 1 1-25.926-9.447 13.804 13.804 0 0 1 25.346-.996 13.82 13.82 0 0 1 .58 10.443m-77.808-28.341a13.8 13.8 0 0 0 10.765-.217 13.79 13.79 0 0 0 8.146-13.316 13.8 13.8 0 0 0-4.708-9.683 13.8 13.8 0 0 0-4.774-2.716 13.8 13.8 0 0 0-17.466 8.33 13.804 13.804 0 0 0 8.025 17.608zm147.411 38.956a13.82 13.82 0 0 1-7.136 7.793 13.81 13.81 0 0 1-18.35-6.671 13.81 13.81 0 0 1 6.671-18.35 13.806 13.806 0 0 1 18.815 17.228" clip-rule="evenodd"/><path fill="#fff" d="M201.197 272.641a10.353 10.353 0 0 0-19.445-7.077l-27.532 75.588a10.37 10.37 0 0 0 .346 7.919 10.37 10.37 0 0 0 5.843 5.355 10.36 10.36 0 0 0 13.274-6.19zM181.521 99.31a65.29 65.29 0 0 1 77.256-26.049l7.038 2.552a65.29 65.29 0 0 1 42.425 69.619 5.8 5.8 0 0 1-1.462.621c-6.731 1.767-24.76 3.016-66.137-12.034-41.371-15.068-54.374-27.601-58.399-33.293a5.7 5.7 0 0 1-.721-1.416m-53.126 131.066a10.355 10.355 0 1 0-20.066-5.142l-11.98 46.815a10.355 10.355 0 0 0 11.484 12.955 10.36 10.36 0 0 0 6.848-4.113 10.3 10.3 0 0 0 1.72-3.693zM278.5 275.112a10.34 10.34 0 0 1 5.864 9.902 10.4 10.4 0 0 1-1.004 3.915l-20.909 43.577a10.35 10.35 0 0 1-5.902 5.291 10.357 10.357 0 0 1-12.775-14.25l20.915-43.564a10.34 10.34 0 0 1 5.896-5.297 10.35 10.35 0 0 1 7.915.426" opacity="0.5"/></g><defs><linearGradient id="b" x1="0" x2="425" y1="0" y2="425" gradientUnits="userSpaceOnUse"><stop stop-color="#FF6363"/><stop offset="1" stop-color="#D72A2A"/></linearGradient><linearGradient id="d" x1="0" x2="425" y1="0" y2="425" gradientUnits="userSpaceOnUse"><stop stop-color="#AE55F4"/><stop offset="1" stop-color="#6A18BC"/></linearGradient><linearGradient id="f" x1="0" x2="425" y1="0" y2="425" gradientUnits="userSpaceOnUse"><stop stop-color="#fff"/><stop offset="1" stop-color="#fff" stop-opacity="0"/></linearGradient><clipPath id="a"><path fill="#fff" d="M0 0h425v425H0z"/></clipPath><filter id="e" width="449" height="449" x="-12" y="-12" color-interpolation-filters="sRGB" filterUnits="userSpaceOnUse"><feFlood flood-opacity="0" result="BackgroundImageFix"/><feBlend in="SourceGraphic" in2="BackgroundImageFix" result="shape"/><feGaussianBlur result="effect1_foregroundBlur_103_66" stdDeviation="6"/></filter></defs></svg>