<?xml version="1.0" encoding="UTF-8"?><svg id="uuid-8f99c5ae-f2ed-4c7e-b3ab-ca9e4c494de6" xmlns="http://www.w3.org/2000/svg" width="683.13" height="683.13" xmlns:xlink="http://www.w3.org/1999/xlink" viewBox="0 0 683.13 683.13"><defs><style>.uuid-d608597e-b8da-4c64-b2f4-59d30f337ff6{clip-path:url(#uuid-edbee348-5cec-40ba-a895-c30642f9a352);}.uuid-1f902011-0fa1-47fd-acac-95ed8219cce7,.uuid-916a3b5e-e13b-42fa-8736-eb7c06244eed{fill:#3ea6ed;}.uuid-916a3b5e-e13b-42fa-8736-eb7c06244eed{clip-path:url(#uuid-f29659bb-905f-418c-9702-d3f631d151bd);}</style><clipPath id="uuid-f29659bb-905f-418c-9702-d3f631d151bd"><polygon class="uuid-1f902011-0fa1-47fd-acac-95ed8219cce7" points=".13 683 .27 683 .13 682.87 .13 683"/></clipPath><clipPath id="uuid-edbee348-5cec-40ba-a895-c30642f9a352"><polygon class="uuid-916a3b5e-e13b-42fa-8736-eb7c06244eed" points=".13 683 0 683 .13 683.13 .13 683"/></clipPath></defs><g><polygon class="uuid-1f902011-0fa1-47fd-acac-95ed8219cce7" points=".13 683 .27 683 .13 682.87 .13 683"/><polygon class="uuid-1f902011-0fa1-47fd-acac-95ed8219cce7" points=".13 683 0 683 .13 683.13 .13 683"/><g class="uuid-d608597e-b8da-4c64-b2f4-59d30f337ff6"><path class="uuid-1f902011-0fa1-47fd-acac-95ed8219cce7" d="m517.13,683H166.28C74.9,683,.13,608.24.13,516.86V166.14C.13,74.76,74.9,0,166.28,0h350.71c91.38,0,166.14,74.76,166.14,166.14v350.63c0,91.43-74.8,166.23-166.23,166.23"/></g></g><path class="uuid-1f902011-0fa1-47fd-acac-95ed8219cce7" d="m528.13,92h-185.83c-1.75,0-3.17,1.42-3.17,3.17v58.24c0,1.98,1.61,3.59,3.59,3.59h25.71c10.38,0,18.8,7.92,19.71,17.99v279.01h-.36c.06,2.25-.03,4.45-.24,6.63-.02.32-.07.63-.11.95-.15,1.27-.31,2.53-.56,3.77-.17.87-.42,1.71-.61,2.57-.13.58-.24,1.16-.41,1.72-1.67,5.58-4.37,10.76-8.17,15.3-.13.16-.3.3-.43.45-1.12,1.3-2.29,2.56-3.59,3.74-1.31,1.19-2.7,2.3-4.16,3.33-10.38,7.35-24.34,10.59-39.95,9.09-19.9-1.87-39.64-10.9-55.59-25.42-15.95-14.52-25.87-32.48-27.93-50.59-1.85-16.2,3.01-30.45,13.65-40.14.03-.02.05-.04.07-.06.41-.37.87-.69,1.29-1.05,7.62-6.39,17.55-10.25,28.89-11.32.13-.01.25-.03.37-.04,1.19-.11,2.41-.15,3.64-.2.64-.02,1.27-.07,1.92-.07.22,0,.42-.03.64-.03.39,0,.79.05,1.17.06,1.79.03,3.59.1,5.42.26.23.02.45.01.69.03.17.02.34.05.51.07,10.4,1.04,20.69,4.15,30.46,8.85.2,0,.44.07.73.23,2.98,1.65,3.55-.12,3.64-1.29v-88.67c0-2.57-1.8-4.79-4.31-5.35-52.6-11.56-104.21.5-140.63,33.66-31.83,28.96-47.22,70.74-42.24,114.64,4.45,39.1,24.52,76.66,56.51,105.77,31.18,28.37,70.88,46.11,111.83,49.97,5.64.52,11.31.79,16.85.79,39.11,0,75.4-13.41,102.19-37.78,25.37-23.11,40.57-54.83,42.8-89.35v-226.54h1v-61h-1v-1.04c.23-10.51,8.99-18.96,19.8-18.96h25.61c1.98,0,3.59-1.61,3.59-3.59v-58.58c0-1.75-1.42-3.17-3.17-3.17"/></svg>